<svg xmlns="http://www.w3.org/2000/svg" xmlns:xlink="http://www.w3.org/1999/xlink" style="isolation:isolate" viewBox="0 0 684.3 465.487" width="684.3" height="465.487"><g id="null">
	<path d=" M 60.8 227.561 C 61.2 221.661 62 214.861 63.5 207.361 C 63.9 205.361 65.7 195.861 69.8 183.361 C 72.3 175.761 76.8 162.361 85.8 146.361 C 92.7 134.261 99.2 125.861 103.8 120.061 C 115.5 105.261 126.1 95.461 129.5 92.361 C 134.8 87.561 144.2 79.561 156.8 71.361 C 168 64.061 177 59.761 179.1 58.661 C 180.9 57.761 189.5 53.761 201.4 49.661 C 205 48.461 215.8 44.861 230.4 41.961 C 237.3 40.561 243.5 39.661 248.7 39.061 C 267.9 36.761 280.4 37.661 280.4 37.261 C 280.4 36.761 263.2 34.961 241.4 36.561 C 230.6 37.361 222.4 38.761 220.1 39.261 C 213.2 40.461 189.1 45.161 160.4 59.961 C 151.5 64.561 138.2 71.461 123.1 83.961 C 105.2 98.761 94.5 113.261 87.4 122.961 C 76.1 138.461 69.6 151.261 67.7 154.961 C 63.9 162.561 57.9 175.761 53 192.961 C 49.4 205.661 47.4 217.261 46.2 227.461" fill="rgb(0,0,0)"/>
	<path d=" M 64.9 296.361 C 65.4 299.261 66.2 303.661 67.6 309.061 C 71.6 324.561 77.3 335.361 86.9 353.361 C 94.6 367.861 99.8 373.161 101.2 375.161 C 104.2 379.161 105.9 382.661 112.2 389.761 C 119.4 397.961 125.2 402.561 129.7 406.961 C 136.9 413.861 140.8 417.961 145.5 421.461 C 149.6 424.561 159.2 429.961 168.9 435.461 C 178.9 441.161 185.5 444.861 191.2 447.061 C 198.1 449.761 205.6 452.561 217.5 455.861 C 226.6 458.361 233.4 458.961 240.8 459.861 C 265.4 462.861 283 461.761 281.1 462.161 C 280.1 462.361 272.5 465.261 263.8 465.461 C 261 465.561 259 465.361 255.5 465.161 C 242 464.161 235.3 463.661 233.8 463.461 C 229.6 462.961 217.7 461.361 202.8 457.161 C 191.4 453.861 183 450.361 177.8 448.161 C 171.8 445.561 161.4 441.161 148.8 433.461 C 143.7 430.361 134.8 424.661 124.5 416.161 C 122.1 414.161 111.6 405.461 99.5 391.861 C 96.6 388.661 89.8 380.761 82.2 369.861 C 77.2 362.761 72.5 356.061 67.5 346.161 C 62 335.261 59.1 326.361 56.8 319.161 C 53.9 310.061 52 302.161 50.8 296.161" fill="rgb(0,0,0)"/>
	<path d=" M 459.2 296.561 C 457.6 300.561 455.6 305.161 454 309.561 C 451.6 316.261 448.1 322.761 444.3 330.361 C 439.3 340.361 433.2 347.861 430.1 351.961 C 428.2 354.461 420.4 364.361 408.1 376.861 C 400.8 384.361 390.9 394.361 375.6 404.361 C 362.7 412.861 351.9 417.461 342.6 421.361 C 332.3 425.661 319.5 430.961 301.6 434.361 C 297.1 435.161 284.4 437.461 267.6 437.361 C 253 437.361 242.1 435.561 234.6 434.361 C 226.7 433.061 217 431.461 204.6 427.361 C 193.6 423.761 185.8 419.861 180.6 417.361 C 175.1 414.661 163.8 408.761 150.6 399.361 C 140.9 392.461 133.5 385.961 128.6 381.361 C 123.8 376.861 117.9 371.261 111.1 362.861 C 105.2 355.461 101.3 349.361 98.6 344.861 C 92.5 335.061 88.8 327.061 86.6 322.361 C 81.1 310.561 76.8 298.961 77.1 298.861 C 77.4 298.761 81.3 309.761 89.6 324.161 C 95 333.661 100.3 341.061 104.1 345.961 C 109 352.361 117.9 363.161 130.9 374.661 C 136.4 379.461 148 389.161 164.7 398.661 C 177.8 406.061 188.4 410.261 191.2 411.361 C 196.1 413.261 211.1 418.761 231.7 421.861 C 250.2 424.661 265.3 424.261 274.2 423.661 C 294.3 422.361 309.4 418.361 315.7 416.461 C 318.5 415.661 328.1 412.761 340.2 407.461 C 360.6 398.461 374.3 388.561 378.7 385.261 C 382.3 382.561 390.3 376.361 399.5 367.261 C 402.7 364.061 410.6 355.961 419.3 344.261 C 427.2 333.661 432.1 324.861 433.1 323.061 C 436.8 316.361 441.3 307.461 445.3 296.361" fill="rgb(0,0,0)"/>
	<path d=" M 32.2 228.361 C 32.2 225.261 32.1 220.961 32.2 215.861 C 32.3 208.661 32.4 201.061 33 192.861 C 33.3 188.561 34 179.461 36 169.061 C 38.8 154.461 43.1 143.861 46.8 134.761 C 50.2 126.261 55.7 113.161 65.8 97.461 C 68.4 93.461 79.1 77.261 97.6 59.661 C 111.7 46.261 124 38.061 127.6 35.661 C 130.3 33.861 143.5 25.361 162.4 17.361 C 173.2 12.761 182.4 9.861 188.7 8.061 C 202.7 4.061 213.5 2.461 216 2.061 C 227.1 0.461 235.6 0.161 238.3 0.061 C 246.1 -0.139 251.7 0.161 261.1 0.861 C 271.5 1.561 276.7 1.861 283.1 2.861 C 295 4.661 303.8 7.461 311.9 10.161 C 317.2 11.861 326.3 14.861 337.7 20.161 C 342.3 22.261 353.6 27.761 367 36.961 C 378.6 44.861 386.8 52.061 390.5 55.461 C 393.6 58.361 401.6 65.761 410.8 76.761 C 422.5 90.761 429.8 103.061 433.1 108.761 C 442 124.461 446.7 137.361 450.6 148.261 C 456.9 165.861 459.7 178.961 460.4 182.261 C 462.6 192.761 463.4 200.161 463.7 202.261 C 464.7 211.361 464.8 219.161 464.7 225.261 L 457.6 225.261 C 457.6 224.361 457.6 222.861 457.5 221.361 C 457.4 218.161 457.6 212.761 457 205.561 C 456.5 199.661 455.9 195.261 455.7 194.161 C 455.5 192.261 454.4 187.761 453.6 183.761 C 453.2 181.461 452.6 176.461 448.2 163.861 C 445.9 157.261 444.1 152.661 440.8 144.361 C 436.7 133.861 434.6 128.461 432.5 124.561 C 429.2 118.061 426.1 113.561 422.5 108.161 C 422.2 107.661 416.8 99.761 411 92.561 C 392.2 69.261 368.8 52.861 368.7 52.761 C 355 43.161 344.3 38.261 325.1 29.361 C 321.1 27.561 316 25.361 309.3 23.361 C 304.4 21.961 300.7 21.161 296.3 20.361 C 285.6 18.361 277.2 17.561 271.8 17.061 C 263.1 16.361 256 16.161 251.4 16.061 C 249 16.061 242.6 15.961 233.5 16.461 C 216.2 17.361 206.7 17.761 194.6 20.961 C 189.9 22.161 185.1 23.861 175.5 27.061 C 168.1 29.561 164.4 30.861 160.5 32.461 C 152.2 35.861 146.6 39.261 138.4 44.061 C 131.1 48.361 124.4 52.361 116.1 58.861 C 109.7 63.861 105.3 68.061 101.7 71.461 C 96.1 76.761 87.2 85.461 77.8 97.961 C 66.3 113.261 60 126.561 55.9 135.461 C 50.3 147.361 46.2 158.661 43.2 168.761 L 37.2 191.461 L 32.2 228.361 Z " fill="rgb(0,0,0)"/>
	<path d=" M 404.5 296.561 C 401.7 300.561 399.1 303.761 396.5 306.861 C 392.4 311.761 388.6 316.061 385.2 319.661 C 380.3 324.761 376.6 328.661 371.2 333.161 C 366.7 336.861 362.5 339.661 354.4 344.961 C 346.9 349.861 343.2 352.361 339.1 354.661 C 331.9 358.561 326.1 360.761 319.9 363.161 C 313.9 365.461 305.9 368.161 296.4 370.661 L 297.2 357.161 C 300.2 356.261 304.5 354.961 309.5 353.361 C 315.8 351.361 319 350.261 322.5 348.861 C 328.1 346.561 331.9 344.561 337 341.661 C 339.8 340.161 346.2 336.461 354.3 330.961 C 361.2 326.261 364.9 323.761 369.6 319.461 C 371.7 317.561 371.5 318.361 381.9 307.661 C 387.9 301.461 389.2 299.361 391.5 296.461" fill="rgb(0,0,0)"/>
	<path d=" M 295.3 377.961 C 294.9 377.861 296.8 366.761 297.2 357.161 C 297.5 349.961 297.1 345.961 296.5 341.561 C 295.9 337.361 294.7 334.361 293.2 330.661 C 290.4 323.661 287.2 318.661 285.5 316.161 C 283.7 313.461 281.5 310.161 277.8 306.461 C 275 303.661 270.6 299.761 264.1 296.461 L 273.9 296.461 C 274.4 296.961 275.3 297.661 276.3 298.561 C 278.4 300.661 279.9 302.061 280.3 302.461 C 284.7 306.361 289.3 313.761 290 314.761 C 292.6 318.961 294.3 322.761 295.3 325.261 C 297.6 330.861 298.8 335.261 299.1 337.161 C 300.3 343.161 300.3 347.861 300.3 349.161 C 300.5 360.861 295.9 378.061 295.3 377.961 Z " fill="rgb(0,0,0)"/>
	<path d=" M 280.7 315.861 C 278.9 317.661 277.3 319.461 277.3 319.461 C 275.9 321.061 273.5 323.861 270.2 328.461 C 267.9 331.761 264.6 336.361 261.4 343.161 C 258.8 348.461 257.5 352.861 256.2 356.661 C 254.7 361.261 253.5 365.061 252.7 370.161 C 251.3 378.461 251.8 384.961 252.2 390.461 C 252.5 394.861 252.8 399.061 254.2 404.461 C 254.7 406.261 255.1 407.261 258.5 416.461 C 259.5 419.261 260.4 421.561 260.9 423.061 L 260.8 424.061 L 268.9 424.061 C 268.7 423.461 268.3 422.661 267.9 421.561 C 265.4 415.461 264.2 412.361 263.5 410.461 C 261.5 404.961 260.6 400.561 260.4 399.561 C 260.2 398.661 259.4 394.761 258.9 389.461 C 258.7 387.261 258.4 383.561 258.5 379.061 C 258.6 377.061 258.8 372.661 260.8 364.261 C 262.4 357.261 263.7 351.761 266.7 344.761 C 270.8 335.161 275.7 328.661 278.6 324.861 C 281.5 321.061 286.4 314.661 294.1 308.461 C 305.2 299.561 317 295.161 326.2 292.861 C 323 293.061 320.4 293.561 318.7 293.861 C 318.7 294.061 298.7 297.961 280.7 315.861 Z " fill="rgb(0,0,0)"/>
	<path d=" M 226.2 296.361 C 225.3 297.761 224.1 299.761 222.7 302.161 C 219.6 307.261 218.1 309.961 217 312.161 C 215 316.261 213.9 319.861 213.3 321.861 C 213 323.061 211.7 327.761 211.1 334.161 C 210.5 341.161 211.2 346.561 211.6 350.161 C 212.1 354.161 212.7 359.161 214.9 365.461 C 215.8 368.161 216.8 372.861 220 377.861 C 222.4 381.661 224.1 383.661 226.8 385.261 C 228.6 386.361 230.1 387.261 231.3 387.461 C 230.5 386.761 229 385.661 227.9 384.261 C 225.8 381.861 224.2 379.361 221.7 374.361 C 219.2 369.161 218.5 366.161 217.4 362.561 C 215.2 355.461 215 349.661 214.9 346.561 C 214.8 343.961 214.8 338.261 216.2 331.061 C 216.5 329.361 217.9 323.061 221.4 315.361 C 223.7 310.361 227.4 303.461 233.7 296.161 L 226.2 296.161 L 226.2 296.361 Z " fill="rgb(0,0,0)"/>
	<path d=" M 215.2 349.561 L 261.4 343.161 L 259.5 347.361 L 215.3 351.761 L 215.2 349.561 Z " fill="rgb(0,0,0)"/>
	<path d=" M 215.5 336.461 L 276.3 320.561 L 272.4 325.461 L 215.2 339.061 L 215.5 336.461 Z " fill="rgb(0,0,0)"/>
	<path d=" M 219.5 320.561 L 267.5 298.361 L 269.9 299.961 L 217.9 325.161 L 219.5 320.561 Z " fill="rgb(0,0,0)"/>
	<path d=" M 229.8 301.461 L 241.8 296.561 L 245.2 296.561 L 224.2 310.261 L 224.2 308.961 L 229.8 301.461 Z " fill="rgb(0,0,0)"/>
	<path d=" M 193.2 228.361 C 192.9 226.461 192.5 224.261 192.2 221.861 C 191.7 217.761 191.2 214.761 191.2 211.061 C 191.1 202.761 191.6 198.361 192 195.261 C 192.6 189.461 193.9 186.161 195.1 183.261 C 197.5 177.261 199.5 172.961 201.8 169.761 C 203.9 166.761 206.6 163.061 211.1 158.961 C 213.9 156.361 214.6 156.361 218.9 152.961 C 220.3 151.861 224.9 148.161 229.2 143.661 C 231.8 140.961 236.6 135.861 241 127.861 C 243.3 123.561 246.3 116.961 248 108.361 C 249.5 100.561 249.2 94.661 249 89.361 C 248.7 83.661 248.5 79.161 246.7 73.361 C 244.8 67.061 241.9 62.361 239.7 59.361 L 242 65.661 C 242.3 66.461 242.6 67.661 243 69.161 C 245.9 80.161 245.8 88.961 245.8 91.161 C 245.7 93.561 245.5 99.961 243.5 107.961 C 242.3 112.661 240.9 118.761 236.7 125.761 C 232.7 132.461 228.2 136.861 226.2 138.761 C 223.9 140.961 221.6 142.861 216.9 146.561 C 212.7 149.961 210.8 151.261 209.1 152.561 C 206.3 154.761 199.3 160.761 194.1 169.861 C 189.6 177.661 188.2 184.661 186.8 191.361 C 186.2 194.261 185.2 199.861 185 207.161 C 184.9 211.961 185.2 215.861 185.8 221.661 C 186 224.161 186.3 226.461 186.5 228.461" fill="rgb(0,0,0)"/>
	<path d=" M 275 230.561 C 275 228.161 274.9 225.761 274.8 223.361 C 274.7 218.761 274.6 216.461 274.5 214.561 C 274.1 209.261 273.3 204.861 272.7 202.061 C 272 198.961 270.9 194.261 268.4 188.561 C 265.8 182.861 263.1 178.961 261.4 176.561 C 259.9 174.461 257.2 170.761 252.9 166.561 C 247.5 161.261 242.5 158.261 238.4 155.861 C 232.9 152.561 229.7 150.761 224.9 149.361 C 220.4 148.061 218.7 148.461 213.6 146.661 C 209.8 145.361 207.2 144.061 204.1 142.361 C 198.3 139.261 193.4 136.561 187.9 131.661 C 186.8 130.661 181.6 125.861 176.7 118.161 C 172.3 111.161 170.2 105.061 168.9 100.861 C 167.8 97.361 166.4 93.261 165.7 87.661 C 164.8 80.361 165.3 74.161 166 69.961 L 165.7 69.961 C 165.7 70.061 165.6 70.261 165.6 70.461 C 165.3 72.261 165 73.561 164.8 74.061 C 164.8 74.061 164.3 76.061 164.1 78.161 C 163.8 80.761 163.8 82.861 163.9 85.261 C 164 87.361 164.2 89.161 164.3 90.461 C 164.6 93.261 165.2 98.061 166.9 103.861 C 169.1 111.461 172 116.861 172.9 118.461 C 173.9 120.261 178 127.261 185.6 134.561 C 187 135.861 193.2 141.661 202.3 146.461 C 204 147.361 206.8 148.861 210.7 150.261 C 213.7 151.361 214.9 151.561 219.9 153.261 C 221.7 153.861 224.3 154.761 226.9 155.761 C 229.7 156.861 234.1 158.561 239 161.561 C 241 162.761 246.1 166.061 251.4 171.461 C 253.6 173.761 257.2 177.461 260.5 183.261 C 263.1 187.861 264.3 191.661 265.3 194.861 C 266.9 199.961 267.6 203.961 268 206.561 C 269.1 213.561 269.2 218.861 269.2 220.261 C 269.2 224.461 268.9 227.961 268.5 230.561 L 275 230.561 Z " fill="rgb(0,0,0)"/>
	<path d=" M 192.7 225.561 L 268.7 211.961 L 270.2 209.161 L 192.2 221.861 L 192.7 225.561 Z " fill="rgb(0,0,0)"/>
	<path d=" M 187.9 210.661 L 262.4 187.061 L 262.8 183.961 L 191.2 205.661 L 187.9 210.661 Z " fill="rgb(0,0,0)"/>
	<path d=" M 189.4 198.061 L 250.6 170.761 L 249.9 167.561 L 190.5 194.261 L 189.4 198.061 Z " fill="rgb(0,0,0)"/>
	<path d=" M 193 185.261 L 239.9 159.661 L 234.1 158.961 L 196 181.061 L 193 185.261 Z " fill="rgb(0,0,0)"/>
	<path d=" M 210.8 150.361 L 191.8 161.161 L 203.1 157.961 L 211.5 150.661 L 210.8 150.361 Z " fill="rgb(0,0,0)"/>
	<path d=" M 223.6 149.061 L 241.5 150.461 L 231.4 151.861 L 223.6 149.061 Z " fill="rgb(0,0,0)"/>
	<path d=" M 220.7 143.361 L 180.9 124.661 L 177.6 120.061 L 225.6 142.961 L 220.7 143.361 Z " fill="rgb(0,0,0)"/>
	<path d=" M 172.6 111.461 L 233.4 130.461 L 237.3 128.861 L 170.7 108.061 L 172.6 111.461 Z " fill="rgb(0,0,0)"/>
	<path d=" M 166.8 95.561 L 243.7 113.861 L 243.7 110.561 L 165.8 92.161 L 166.8 95.561 Z " fill="rgb(0,0,0)"/>
	<path d=" M 164.9 82.161 L 247 99.361 L 247 96.061 L 164.7 79.061 L 164.9 82.161 Z " fill="rgb(0,0,0)"/>
	<path d=" M 164.9 74.061 L 246.6 81.661 L 245.5 79.161 L 165.7 71.961 L 164.9 74.061 Z " fill="rgb(0,0,0)"/>
	<path d=" M 397.3 225.861 C 398.3 224.761 399.5 223.361 400.7 221.861 C 405.6 216.161 408.1 213.261 410.2 210.361 C 411.2 208.961 414.1 204.861 417 199.061 C 418.1 196.761 421 190.761 423.3 182.261 C 425.1 175.261 425.7 169.761 426.1 165.961 C 426.4 162.761 426.8 158.461 426.6 152.961 C 426.3 143.461 424.4 136.361 423.3 132.461 C 420.6 122.361 417 115.261 416 113.461 C 414.3 110.161 411.1 104.461 406 98.161 C 400.7 91.661 395.2 86.661 390.2 82.861 C 391.7 84.461 393.8 86.861 396.2 89.861 C 400.9 95.761 407.2 103.561 412.2 114.661 C 417.1 125.561 418.7 134.861 419.2 138.461 C 419.6 141.461 420.9 151.661 418.9 164.761 C 418.4 168.261 416.6 178.961 410.6 191.561 C 403.1 207.561 392.6 218.761 384.6 225.761" fill="rgb(0,0,0)"/>
	<path d=" M 430.5 206.861 C 430.9 202.461 431.4 199.161 431.9 194.061 C 432 192.661 432.7 186.261 432.6 177.361 C 432.5 172.161 432.2 168.161 431.6 160.061 C 430.8 149.661 430.2 146.061 429.9 144.761 C 429.7 143.461 429 140.061 427.2 133.461 C 425.8 128.161 423.6 121.061 420.5 112.461 C 421.1 113.161 421.8 114.161 422.7 115.361 C 424 117.261 425.1 119.161 426.2 121.461 C 427.9 125.161 429 128.361 430 131.461 C 432 137.761 433.1 141.461 434.3 146.861 C 436 154.361 436.6 160.161 437.1 164.361 C 438.3 175.261 438.3 183.561 438.2 188.861 C 438.1 199.761 437.4 207.961 437.1 210.761 C 436.5 217.161 435.6 222.561 434.8 226.861 L 426.6 226.861 C 426.5 226.761 430.2 209.161 430.5 206.861 Z " fill="rgb(0,0,0)"/>
	<path d=" M 0 236.661 L 14.7 236.661 L 30.2 264.861 L 45.9 236.661 L 60.7 236.661 L 37 280.161 L 24.5 280.161 L 0 236.661 Z " fill="rgb(0,0,0)"/>
	<path d=" M 66 236.661 L 66 288.061 L 79.5 280.161 L 79.5 236.661 L 66 236.661 Z " fill="rgb(0,0,0)"/>
	<path d=" M 86 236.661 L 95.7 247.161 L 107.7 247.161 L 107.7 288.061 L 121.7 280.161 L 121.7 247.161 L 134.2 247.161 L 144.2 236.661 L 86 236.661 Z " fill="rgb(0,0,0)"/>
	<path d=" M 184.2 236.661 L 184.2 279.661 L 197.2 279.661 L 197.2 269.861 L 197.2 236.661 L 184.2 236.661 Z " fill="rgb(0,0,0)"/>
	<path d=" M 221.7 269.661 L 197.2 269.661 L 197.2 279.661 L 229 279.661 L 239.5 266.161 L 233 258.161 L 197.2 258.161 L 197.2 263.061 L 222.4 263.061 L 224.2 266.161 L 221.7 269.661 Z " fill="rgb(0,0,0)"/>
	<path d=" M 197.2 236.661 L 229.3 236.661 L 239.5 250.561 L 233 258.161 L 197.2 258.161 L 197.2 253.561 L 221.9 253.561 L 224.5 250.261 L 221.9 246.861 L 197.2 246.861 L 197.2 236.661 Z " fill="rgb(0,0,0)"/>
	<path d=" M 247.4 236.661 L 247.4 287.461 L 260.4 280.161 L 260.4 236.661 L 247.4 236.661 Z " fill="rgb(0,0,0)"/>
	<path d=" M 282.1 269.661 L 324.4 269.661 L 314.3 279.961 L 278.7 279.961 L 269 269.661 L 282.1 269.661 Z " fill="rgb(0,0,0)"/>
	<path d=" M 324.4 247.061 L 314.5 236.661 L 279.1 236.661 L 269 247.061 L 324.4 247.061 Z " fill="rgb(0,0,0)"/><rect x="269" y="247.061" width="13.2" height="22.6" transform="matrix(1,0,0,1,0,0)" fill="rgb(0,0,0)"/><rect x="310.7" y="247.061" width="13.7" height="22.6" transform="matrix(1,0,0,1,0,0)" fill="rgb(0,0,0)"/>
	<path d=" M 389.4 236.661 L 340.5 236.661 L 330.7 250.161 L 344.9 250.161 L 347.5 247.061 L 379.7 247.061 L 389.4 236.661 Z " fill="rgb(0,0,0)"/>
	<path d=" M 330.7 279.961 L 379.5 279.961 L 389.4 266.361 L 375.2 266.361 L 372.7 269.661 L 340.2 269.661 L 330.7 279.961 Z " fill="rgb(0,0,0)"/>
	<path d=" M 344.9 250.161 L 347.9 253.661 L 380.5 253.661 L 389.7 266.361 L 375.2 266.361 L 372.6 262.861 L 339.8 262.861 L 330.7 250.161 L 344.9 250.161 Z " fill="rgb(0,0,0)"/>
	<path d=" M 396.5 229.161 L 409.3 236.661 L 409.3 269.661 L 434.8 269.661 L 434.8 236.661 L 448.5 236.661 L 448.5 269.661 L 438.1 279.961 L 406.5 279.961 L 396.5 270.261 L 396.5 229.161 Z " fill="rgb(0,0,0)"/>
	<path d=" M 456.6 287.261 L 456.6 236.461 L 472.1 236.461 L 490.3 261.861 L 508.1 236.461 L 523.3 236.461 L 523.3 279.961 L 509.2 279.961 L 509.2 253.761 L 494.1 274.761 L 485.6 274.761 L 470.1 253.861 L 470.3 279.261 L 456.6 287.261 Z " fill="rgb(0,0,0)"/>
	<path d=" M 531.5 287.261 L 531.5 236.461 L 546.8 236.461 L 565.1 261.861 L 583.3 236.461 L 598.1 236.461 L 598.1 280.161 L 584 279.861 L 584 253.861 L 568.7 274.861 L 560.2 274.861 L 545.1 253.861 L 545.1 279.261 L 531.5 287.261 Z " fill="rgb(0,0,0)"/>
	<path d=" M 606.3 236.461 L 606.3 287.261 L 620.1 279.361 L 620.1 236.461 L 606.3 236.461 Z " fill="rgb(0,0,0)"/>
	<path d=" M 625.1 236.461 L 684.3 236.461 L 674 247.261 L 662.3 247.261 L 662.3 279.261 L 648.3 287.261 L 648.3 247.161 L 635.7 247.161 L 625.1 236.461 Z " fill="rgb(0,0,0)"/>
	<path d=" M 628 305.661 L 683.1 305.661 L 647.6 348.661 L 632.2 348.661 L 659.7 315.261 L 637.8 315.261 L 628 305.661 Z " fill="rgb(0,0,0)"/>
	<path d=" M 620.6 305.661 L 607.8 313.261 L 607.8 348.661 L 620.6 348.661 L 620.6 305.661 Z " fill="rgb(0,0,0)"/>
	<path d=" M 546.5 315.461 L 552.8 315.461 L 559.2 315.461 L 559.2 338.861 L 588.6 338.861 L 588.6 315.461 L 601.1 315.461 L 601.1 338.861 L 591.6 348.661 L 556.6 348.661 L 546.5 338.461 L 546.5 315.461 Z " fill="rgb(0,0,0)"/>
	<path d=" M 601.1 315.461 L 591.5 305.661 L 556.5 305.661 L 546.5 315.561 L 559.2 315.461 L 588.6 315.461" fill="rgb(0,0,0)"/>
	<path d=" M 486.7 305.661 L 496.3 315.461 L 524.2 315.461 L 526.6 318.661 L 524 322.461 L 496.1 322.461 L 486.7 334.961 L 486.7 348.661 L 541.2 348.661 L 531.5 338.761 L 499.5 338.761 L 499.5 334.861 L 502.7 331.261 L 531.5 331.261 L 541.2 318.761 L 531.5 305.661 L 486.7 305.661 Z " fill="rgb(0,0,0)"/></g>
</svg>