<svg xmlns="http://www.w3.org/2000/svg" style="isolation:isolate" viewBox="0 0 684.3 465.487" width="684.3" height="465.487"><g id="null" fill-rule="evenodd">
    <path d="M0 236.66h14.7l15.5 28.2 15.7-28.2h14.8L37 280.16H24.5L0 236.66zm66 0v51.4l13.5-7.9v-43.5H66zm20 0l9.7 10.5h12v40.9l14-7.9v-33h12.5l10-10.5H86zm111.2 0h32.1l10.2 13.9-6.5 7.6h-35.8v-4.6h24.7l2.6-3.3-2.6-3.4h-24.7v-10.2zm24.5 33h-24.5v10H229l10.5-13.5-6.5-8h-35.8v4.9h25.2l1.8 3.1-2.5 3.5zm-37.5-33v43h13v-43h-13zm63.2 0v50.8l13-7.3v-43.5h-13zm77 10.4v22.6l-10.1 10.3h-35.6l-9.7-10.3v-22.6l10.1-10.4h35.4l9.9 10.4zm-13.7 22.6v-22.6h-28.5v22.6h28.5zm34.2-19.5l3 3.5h32.6l9.2 12.7h-14.5l-2.6-3.5h-32.8l-9.1-12.7h14.2zm-14.2 29.8h48.8l9.9-13.6h-14.2l-2.5 3.3h-32.5l-9.5 10.3zm58.7-43.3h-48.9l-9.8 13.5h14.2l2.6-3.1h32.2l9.7-10.4zm7.1-7.5l12.8 7.5v33h25.5v-33h13.7v33l-10.4 10.3h-31.6l-10-9.7v-41.1zm60.1 58.1v-50.8h15.5l18.2 25.4 17.8-25.4h15.2v43.5h-14.1v-26.2l-15.1 21h-8.5l-15.5-20.9.2 25.4-13.7 8zm74.9 0v-50.8h15.3l18.3 25.4 18.2-25.4h14.8v43.7l-14.1-.3v-26l-15.3 21h-8.5l-15.1-21v25.4l-13.6 8zm74.8-50.8v50.8l13.8-7.9v-42.9h-13.8zm18.8 0h59.2l-10.3 10.8h-11.7v32l-14 8v-40.1h-12.6l-10.6-10.7zm-138.4 69.2l9.6 9.8h27.9l2.4 3.2-2.6 3.8h-27.9l-9.4 12.5v13.7h54.5l-9.7-9.9h-32v-3.9l3.2-3.6h28.8l9.7-12.5-9.7-13.1h-44.8zm59.9 9.8h-.1v23l10.1 10.2h35l9.5-9.8v-23.4h-12.5v23.4h-29.4v-23.4h41.9l-9.6-9.8h-35l-9.9 9.8zm74-9.8l-12.8 7.6v35.4h12.8v-43zm7.4 0h55.1l-35.5 43h-15.4l9.99-12.132 17.51-21.267h-21.9l-9.8-9.6zM164.9 74.06l81.7 7.6-1.1-2.5-79.8-7.2-.8 2.1zm0 8.1l82.1 17.2v-3.3l-82.3-17 .2 3.1zm1.9 13.4l76.9 18.3v-3.3l-77.9-18.4 1 3.4zm5.8 15.9l60.8 19 3.9-1.6-66.6-20.8 1.9 3.4zm48.1 31.9l-39.8-18.7-3.3-4.6 48 22.9-4.9.4zm-27.7 41.9l46.9-25.6-5.8-.7-38.1 22.1-3 4.2zm-3.6 12.8l61.2-27.3-.7-3.2-59.4 26.7-1.1 3.8zm-1.5 12.6l74.5-23.6.4-3.1-71.6 21.7-3.3 5zm4.8 14.9l76-13.6 1.5-2.8-78 12.7.5 3.7zm37.1 75.9l12-4.9h3.4l-21 13.7v-1.3l5.6-7.5zm-10.3 19.1l48-22.2 2.4 1.6-52 25.2 1.6-4.6zm-4 15.9l60.8-15.9-3.9 4.9-57.2 13.6.3-2.6zm-.3 13.1l46.2-6.4-1.9 4.2-44.2 4.4-.1-2.2z"/>
    <path d="M231.073 151.743c2.184 1.065 4.438 2.385 7.327 4.118 4.1 2.4 9.1 5.4 14.5 10.7 4.3 4.2 7 7.9 8.5 10 1.7 2.4 4.4 6.3 7 12 2.5 5.7 3.6 10.4 4.3 13.5.6 2.8 1.4 7.2 1.8 12.5.1 1.9.2 4.2.3 8.8.1 2.4.2 4.8.2 7.2h-6.5c.4-2.6.7-6.1.7-10.3 0-1.4-.1-6.7-1.2-13.7-.4-2.6-1.1-6.6-2.7-11.7-1-3.2-2.2-7-4.8-11.6-3.3-5.8-6.9-9.5-9.1-11.8-5.3-5.4-10.4-8.7-12.4-9.9-4.9-3-9.3-4.7-12.1-5.8-2.6-1-5.2-1.9-7-2.5-.37-.125-.72-.243-.972-.322l-.028.023c-4.3 3.4-5 3.4-7.8 6-4.5 4.1-7.2 7.8-9.3 10.8-2.3 3.2-4.3 7.5-6.7 13.5-1.2 2.9-2.5 6.2-3.1 12-.4 3.1-.9 7.5-.8 15.8 0 3.7.5 6.7 1 10.8.3 2.4.7 4.6 1 6.5l-7.4-6.7c-.6-5.8-.9-9.7-.8-14.5.2-7.3 1.2-12.9 1.8-15.8 1.4-6.7 2.8-13.7 7.3-21.5 2.864-5.01 6.273-9.082 9.227-12.096l-.227.197-11.3 3.2 19-10.8.7.3-.834.725c.31-.232.65-.487 1.03-.774-.286-.092-.627-.214-.996-.35-3.9-1.4-6.7-2.9-8.4-3.8-9.1-4.8-15.3-10.6-16.7-11.9-7.6-7.3-11.7-14.3-12.7-16.1-.9-1.6-3.8-7-6-14.6-1.7-5.8-2.3-10.6-2.6-13.4-.1-1.3-.3-3.1-.4-5.2-.1-2.4-.1-4.5.2-7.1.2-2.1.7-4.1.7-4.1.2-.5.5-1.8.8-3.6 0-.2.1-.4.1-.5h.3c-.7 4.2-1.2 10.4-.3 17.7.7 5.6 2.1 9.7 3.2 13.2 1.3 4.2 3.4 10.3 7.8 17.3 4.9 7.7 10.1 12.5 11.2 13.5 5.5 4.9 10.4 7.6 16.2 10.7 3.1 1.7 5.7 3 9.5 4.3.846.3 1.6.538 2.27.723.294-.228.653-.517 1.03-.822 4.7-3.7 7-5.6 9.3-7.8 2-1.9 6.5-6.3 10.5-13 4.2-7 5.6-13.1 6.8-17.8 2-8 2.2-14.4 2.3-16.8 0-2.2.1-11-2.8-22-.4-1.5-.7-2.7-1-3.5l-2.3-6.3c2.2 3 5.1 7.7 7 14 1.8 5.8 2 10.3 2.3 16 .2 5.3.5 11.2-1 19-1.7 8.6-4.7 15.2-7 19.5-4.4 8-9.2 13.1-11.8 15.8-1.933 2.023-3.926 3.884-5.6 5.348l.292.076 17.608 1.377-10.1 1.4-.327-.117zM226.2 296.36c-.9 1.4-2.1 3.4-3.5 5.8-3.1 5.1-4.6 7.8-5.7 10-2 4.1-3.1 7.7-3.7 9.7-.3 1.2-1.6 5.9-2.2 12.3-.6 7 .1 12.4.5 16 .5 4 1.1 9 3.3 15.3.9 2.7 1.9 7.4 5.1 12.4 2.4 3.8 4.1 5.8 6.8 7.4 1.8 1.1 3.3 2 4.5 2.2-.8-.7-2.3-1.8-3.4-3.2-2.1-2.4-3.7-4.9-6.2-9.9-2.5-5.2-3.2-8.2-4.3-11.8-2.2-7.1-2.4-12.9-2.5-16-.1-2.6-.1-8.3 1.3-15.5.3-1.7 1.7-8 5.2-15.7 2.3-5 6-11.9 12.3-19.2h-7.5v.2zm69.1 81.6c-.4-.1 1.5-11.2 1.9-20.8.3-7.2-.1-11.2-.7-15.6-.6-4.2-1.8-7.2-3.3-10.9-2.8-7-6-12-7.7-14.5-1.8-2.7-4-6-7.7-9.7-2.8-2.8-7.2-6.7-13.7-10h9.8c.5.5 1.4 1.2 2.4 2.1 2.1 2.1 3.6 3.5 4 3.9 4.4 3.9 9 11.3 9.7 12.3 2.6 4.2 4.3 8 5.3 10.5 2.3 5.6 3.5 10 3.8 11.9 1.2 6 1.2 10.7 1.2 12 .2 11.7-4.4 28.9-5 28.8z"/>
    <path d="M430.5 206.86c.4-4.4.9-7.7 1.4-12.8.1-1.4.8-7.8.7-16.7-.1-5.2-.4-9.2-1-17.3-.8-10.4-1.4-14-1.7-15.3-.2-1.3-.9-4.7-2.7-11.3-1.4-5.3-3.6-12.4-6.7-21 .6.7 1.3 1.7 2.2 2.9 1.3 1.9 2.4 3.8 3.5 6.1 1.7 3.7 2.8 6.9 3.8 10 2 6.3 3.1 10 4.3 15.4 1.7 7.5 2.3 13.3 2.8 17.5 1.2 10.9 1.2 19.2 1.1 24.5-.1 10.9-.8 19.1-1.1 21.9-.6 6.4-1.5 11.8-2.3 16.1h-8.2c-.1-.1 3.6-17.7 3.9-20zm-33.2 19c1-1.1 2.2-2.5 3.4-4 4.9-5.7 7.4-8.6 9.5-11.5 1-1.4 3.9-5.5 6.8-11.3 1.1-2.3 4-8.3 6.3-16.8 1.8-7 2.4-12.5 2.8-16.3.3-3.2.7-7.5.5-13-.3-9.5-2.2-16.6-3.3-20.5-2.7-10.1-6.3-17.2-7.3-19-1.7-3.3-4.9-9-10-15.3-5.3-6.5-10.8-11.5-15.8-15.3 1.5 1.6 3.6 4 6 7 4.7 5.9 11 13.7 16 24.8 4.9 10.9 6.5 20.2 7 23.8.4 3 1.7 13.2-.3 26.3-.5 3.5-2.3 14.2-8.3 26.8m-145.726 232.5c-8.694.16-20.083-.218-33.174-2.2-20.6-3.1-35.6-8.6-40.5-10.5-2.8-1.1-13.4-5.3-26.5-12.7-16.7-9.5-28.3-19.2-33.8-24-13-11.5-21.9-22.3-26.8-28.7-3.8-4.9-9.1-12.3-14.5-21.8-8.3-14.4-12.2-25.4-12.5-25.3-.3.1 4 11.7 9.5 23.5 2.2 4.7 5.9 12.7 12 22.5 2.7 4.5 6.6 10.6 12.5 18 6.8 8.4 12.7 14 17.5 18.5 4.9 4.6 12.3 11.1 22 18 13.2 9.4 24.5 15.3 30 18 5.2 2.5 13 6.4 24 10 12.4 4.1 22.1 5.7 30 7 7.5 1.2 18.4 3 33 3 16.8.1 29.5-2.2 34-3 17.9-3.4 30.7-8.7 41-13 9.3-3.9 20.1-8.5 33-17 15.3-10 25.2-20 32.5-27.5 12.3-12.5 20.1-22.4 22-24.9 3.1-4.1 9.2-11.6 14.2-21.6 3.8-7.6 7.3-14.1 9.7-20.8 1.6-4.4 3.6-9 5.2-13l-26.1 26.5c-1 1.8-5.9 10.6-13.8 21.2-8.7 11.7-16.6 19.8-19.8 23-9.2 9.1-17.2 15.3-20.8 18-4.4 3.3-18.1 13.2-38.5 22.2-12.1 5.3-21.7 8.2-24.5 9-6.3 1.9-21.4 5.9-41.5 7.2-1.578.107-3.35.207-5.35.275-.2-.576-.575-1.343-.95-2.374-2.5-6.1-3.7-9.2-4.4-11.1-2-5.5-2.9-9.9-3.1-10.9-.2-.9-1-4.8-1.5-10.1-.2-2.2-.5-5.9-.4-10.4.1-2 .3-6.4 2.3-14.8 1.6-7 2.9-12.5 5.9-19.5 4.1-9.6 9-16.1 11.9-19.9 2.9-3.8 7.8-10.2 15.5-16.4 11.1-8.9 22.9-13.3 32.1-15.6-3.2.2-5.8.7-7.5 1 0 .2-20 4.1-38 22-1.8 1.8-3.4 3.6-3.4 3.6-1.4 1.6-3.8 4.4-7.1 9-2.3 3.3-5.6 7.9-8.8 14.7-2.6 5.3-3.9 9.7-5.2 13.5-1.5 4.6-2.7 8.4-3.5 13.5-1.4 8.3-.9 14.8-.5 20.3.3 4.4.6 8.6 2 14 .5 1.8.9 2.8 4.3 12 1 2.8 1.9 5.1 2.4 6.6l-.1 1h4.074zM404.5 296.56c-2.8 4-5.4 7.2-8 10.3-4.1 4.9-7.9 9.2-11.3 12.8-4.9 5.1-8.6 9-14 13.5-4.5 3.7-8.7 6.5-16.8 11.8-7.5 4.9-11.2 7.4-15.3 9.7-7.2 3.9-13 6.1-19.2 8.5-6 2.3-14 5-23.5 7.5l.8-13.5c3-.9 7.3-2.2 12.3-3.8 6.3-2 9.5-3.1 13-4.5 5.6-2.3 9.4-4.3 14.5-7.2 2.8-1.5 9.2-5.2 17.3-10.7 6.9-4.7 10.6-7.2 15.3-11.5 2.1-1.9 1.9-1.1 12.3-11.8m-349.7-79.3c0-3.1-.1-7.4 0-12.5.1-7.2.2-14.8.8-23 .3-4.3 1-13.4 3-23.8 2.8-14.6 7.1-25.2 10.8-34.3 3.4-8.5 8.9-21.6 19-37.3 2.6-4 13.3-20.2 31.8-37.8 14.1-13.4 26.4-21.6 30-24 2.7-1.8 15.9-10.3 34.8-18.3 10.8-4.6 20-7.5 26.3-9.3 14-4 24.8-5.6 27.3-6 11.1-1.6 19.6-1.9 22.3-2 7.8-.2 13.4.1 22.8.8 10.4.7 15.6 1 22 2 11.9 1.8 20.7 4.6 28.8 7.3 5.3 1.7 14.4 4.7 25.8 10 4.6 2.1 15.9 7.6 29.3 16.8 11.6 7.9 19.8 15.1 23.5 18.5 3.1 2.9 11.1 10.3 20.3 21.3 11.7 14 19 26.3 22.3 32 8.9 15.7 13.6 28.6 17.5 39.5 6.3 17.6 9.1 30.7 9.8 34 2.2 10.5 3 17.9 3.3 20 1 9.1 1.1 16.9 1 23h-7.1c0-.9 0-2.4-.1-3.9-.1-3.2.1-8.6-.5-15.8-.5-5.9-1.1-10.3-1.3-11.4-.2-1.9-1.3-6.4-2.1-10.4-.4-2.3-1-7.3-5.4-19.9-2.3-6.6-4.1-11.2-7.4-19.5-4.1-10.5-6.2-15.9-8.3-19.8-3.3-6.5-6.4-11-10-16.4-.3-.5-5.7-8.4-11.5-15.6-18.8-23.3-42.2-39.7-42.3-39.8-13.7-9.6-24.4-14.5-43.6-23.4-4-1.8-9.1-4-15.8-6-4.9-1.4-8.6-2.2-13-3-10.7-2-19.1-2.8-24.5-3.3-8.7-.7-15.8-.9-20.4-1-2.4 0-8.8-.1-17.9.4-17.3.9-26.8 1.3-38.9 4.5-4.7 1.2-9.5 2.9-19.1 6.1-7.4 2.5-11.1 3.8-15 5.4-8.3 3.4-13.9 6.8-22.1 11.6-7.3 4.3-14 8.3-22.3 14.8-6.4 5-10.8 9.2-14.4 12.6-5.6 5.3-14.5 14-23.9 26.5-11.5 15.3-17.8 28.6-21.9 37.5-5.6 11.9-9.7 23.2-12.7 33.3l-6 22.7-5 36.9zm32.7 68c.5 2.9 1.3 7.3 2.7 12.7 4 15.5 9.7 26.3 19.3 44.3 7.7 14.5 12.9 19.8 14.3 21.8 3 4 4.7 7.5 11 14.6 7.2 8.2 13 12.8 17.5 17.2 7.2 6.9 11.1 11 15.8 14.5 4.1 3.1 13.7 8.5 23.4 14 10 5.7 16.6 9.4 22.3 11.6 6.9 2.7 14.4 5.5 26.3 8.8 9.1 2.5 15.9 3.1 23.3 4 24.6 3 42.2 1.9 40.3 2.3-1 .2-8.6 3.1-17.3 3.3-2.8.1-4.8-.1-8.3-.3-13.5-1-20.2-1.5-21.7-1.7-4.2-.5-16.1-2.1-31-6.3-11.4-3.3-19.8-6.8-25-9-6-2.6-16.4-7-29-14.7-5.1-3.1-14-8.8-24.3-17.3-2.4-2-12.9-10.7-25-24.3-2.9-3.2-9.7-11.1-17.3-22-5-7.1-9.7-13.8-14.7-23.7-5.5-10.9-8.4-19.8-10.7-27m4-91.6c.4-5.9 1.2-12.7 2.7-20.2.4-2 2.2-11.5 6.3-24 2.5-7.6 7-21 16-37 6.9-12.1 13.4-20.5 18-26.3 11.7-14.8 22.3-24.6 25.7-27.7 5.3-4.8 14.7-12.8 27.3-21 11.2-7.3 20.2-11.6 22.3-12.7 1.8-.9 10.4-4.9 22.3-9 3.6-1.2 14.4-4.8 29-7.7 6.9-1.4 13.1-2.3 18.3-2.9 19.2-2.3 31.7-1.4 31.7-1.8 0-.5-17.2-2.3-39-.7-10.8.8-19 2.2-21.3 2.7-6.9 1.2-31 5.9-59.7 20.7-8.9 4.6-22.2 11.5-37.3 24-17.9 14.8-28.6 29.3-35.7 39-11.3 15.5-17.8 28.3-19.7 32-3.8 7.6-9.8 20.8-14.7 38"/></g>
</svg>
